<?xml version="1.0" encoding="utf-8"?>
<!-- Generator: Adobe Illustrator 24.0.0, SVG Export Plug-In . SVG Version: 6.00 Build 0)  -->
<svg version="1.1" id="图层_1" xmlns="http://www.w3.org/2000/svg" xmlns:xlink="http://www.w3.org/1999/xlink" x="0px" y="0px"
	 viewBox="0 0 500 151" style="enable-background:new 0 0 500 151;" xml:space="preserve">
<style type="text/css">
	.st0{fill:#1ADF52;}
	.st1{fill:url(#SVGID_1_);}
	.st2{fill:url(#SVGID_2_);}
	.st3{fill-rule:evenodd;clip-rule:evenodd;fill:url(#SVGID_3_);}
</style>
<path d="M317.8,33.5l-13.7,78.4c-0.2,1.5-1,2.7-2.2,3.6c-1.2,1-2.7,1.5-4.4,1.5h-17.3c-1.6,0-3.1-0.5-4.4-1.5
	c-1.2-1-1.9-2.2-2.2-3.8l-9.3-54.3c-0.2-1.9-0.5-3.7-0.7-5.4c-0.2-1.9-0.5-3.7-0.7-5.4h-2.3c-0.2,1.8-0.4,3.6-0.6,5.4
	c-0.2,1.9-0.5,3.7-0.7,5.4l-9.3,54.3c-0.2,1.5-1,2.8-2.3,3.8c-1.2,1-2.6,1.5-4.2,1.5h-17.4c-1.6,0-3.1-0.5-4.4-1.5
	c-1.2-1-1.9-2.2-2.2-3.6l-13.7-78.4h18.6l8.7,58.1c0.2,1.8,0.4,3.7,0.6,5.7c0.2,2,0.3,4.2,0.5,6.4h2.3c0.3-1.9,0.6-4,1-6.1
	c0.4-2.2,0.7-4.2,1-6.1l9.2-52.4c0.2-1.7,1-3.1,2.2-4.1c1.2-1,2.7-1.6,4.4-1.6h15.2c1.7,0,3.1,0.5,4.2,1.6c1.2,1,1.9,2.4,2.2,4.1
	l9.3,52.5c0.3,1.9,0.6,4,1,6.1c0.3,2,0.6,4,0.8,5.9h2.4c0.2-1.9,0.3-4,0.5-6.1c0.2-2.1,0.4-4,0.6-5.8l8.6-58.3H317.8z"/>
<path d="M344.9,33.1c4.5,0,9.1,0,13.7,0.1c4.6,0,9.1,0.1,13.6,0.2c4.4,0.2,8.6,0.4,12.5,0.8l-0.8,13.4h-32.1c-2,0-3.5,0.5-4.6,1.6
	c-1,1-1.5,2.6-1.5,4.6v42.6c0,2,0.5,3.5,1.5,4.6c1,1,2.6,1.6,4.6,1.6h32.1l0.8,13.4c-3.9,0.3-8,0.6-12.5,0.8
	c-4.4,0.2-9,0.2-13.6,0.2c-4.6,0.1-9.2,0.1-13.7,0.1c-5.3,0-9.6-1.5-12.9-4.6c-3.2-3.1-4.8-7.2-4.8-12.2V49.9
	c0-5.1,1.6-9.2,4.8-12.2C335.2,34.6,339.5,33.1,344.9,33.1z M329.2,67h50V80h-50V67z"/>
<path d="M467.7,33.5l-20.6,40.7l22.1,42.8h-18.9l-20.8-42.8L449,33.5H467.7z M414.1,33.5l19.4,40.7L412.7,117h-18.9l22-42.8
	l-20.5-40.7H414.1z M440.5,68.2v11.4h-19V68.2H440.5z"/>
<path class="st0" d="M498.4,33.5l-20.6,40.7L500,117h-18.9l-20.8-42.8l19.4-40.7H498.4z"/>
<linearGradient id="SVGID_1_" gradientUnits="userSpaceOnUse" x1="163.0372" y1="115.1877" x2="102.5812" y2="11.2201" gradientTransform="matrix(1 0 0 -1 0 152.8031)">
	<stop  offset="0" style="stop-color:#17EF54"/>
	<stop  offset="1" style="stop-color:#26AC4B"/>
</linearGradient>
<path class="st1" d="M177.2,47.8c0.4-0.7-0.1-1.5-0.9-1.5h-37.8c-0.4,0-0.7,0.2-0.9,0.5l-39.9,68.7c-0.2,0.3-0.2,0.7,0,1l19.1,32.3
	c0.4,0.7,1.3,0.7,1.7,0L177.2,47.8z"/>
<linearGradient id="SVGID_2_" gradientUnits="userSpaceOnUse" x1="15.004" y1="115.1876" x2="75.4593" y2="11.22" gradientTransform="matrix(1 0 0 -1 0 152.8031)">
	<stop  offset="0" style="stop-color:#17EF54"/>
	<stop  offset="1" style="stop-color:#26AC4B"/>
</linearGradient>
<path class="st2" d="M0.9,47.8c-0.4-0.7,0.1-1.5,0.9-1.5h37.8c0.4,0,0.7,0.2,0.9,0.5l39.9,68.7c0.2,0.3,0.2,0.7,0,1l-19.1,32.3
	c-0.4,0.7-1.3,0.7-1.7,0L0.9,47.8z"/>
<linearGradient id="SVGID_3_" gradientUnits="userSpaceOnUse" x1="89.0206" y1="152.8031" x2="89.0206" y2="57.7106" gradientTransform="matrix(1 0 0 -1 0 152.8031)">
	<stop  offset="0" style="stop-color:#17EF54"/>
	<stop  offset="1" style="stop-color:#26AC4B"/>
</linearGradient>
<path class="st3" d="M116.7,48.1c0.2-0.3,0.2-0.7,0-1L89.9,1.5c-0.4-0.7-1.3-0.7-1.7,0L61.4,47c-0.2,0.3-0.2,0.7,0,1l26.8,45.6
	c0.4,0.7,1.3,0.7,1.7,0L116.7,48.1z"/>
</svg>
